<svg width="21" height="21" viewBox="0 0 21 21" fill="none" xmlns="http://www.w3.org/2000/svg">
<g id="Group 206">
<path id="Vector" d="M20.3148 10.7281H7.07586C6.69787 10.7281 6.39109 10.4213 6.39109 10.0433C6.39109 9.66529 6.69787 9.35852 7.07586 9.35852H20.3148C20.6928 9.35852 20.9996 9.66529 20.9996 10.0433C20.9996 10.4213 20.6928 10.7281 20.3148 10.7281Z" fill="#E64D4D"/>
<path id="Vector_2" d="M10.7281 14.3801C10.5527 14.3801 10.3775 14.3136 10.2441 14.1793L6.59208 10.5273C6.32459 10.2596 6.32459 9.82595 6.59208 9.55847L10.2441 5.90643C10.5116 5.63894 10.9453 5.63894 11.2129 5.90643C11.4804 6.17391 11.4804 6.60758 11.2129 6.87507L8.0447 10.0433L11.2129 13.2115C11.4804 13.479 11.4804 13.9127 11.2129 14.1802C11.0787 14.3136 10.9033 14.3801 10.7281 14.3801Z" fill="#E64D4D"/>
<path id="Vector_3" d="M10.0433 20.0866C4.50583 20.0866 0 15.5808 0 10.0433C0 4.50583 4.50583 0 10.0433 0C14.1984 0 17.867 2.49984 19.3908 6.36938C19.5296 6.72079 19.3561 7.11801 19.0047 7.2576C18.6531 7.39469 18.2559 7.22383 18.1163 6.87058C16.8006 3.52883 13.6315 1.36954 10.0433 1.36954C5.26081 1.36954 1.36954 5.26098 1.36954 10.0433C1.36954 14.8257 5.26081 18.7171 10.0433 18.7171C13.6315 18.7171 16.8006 16.5578 18.1163 13.2171C18.255 12.8636 18.6522 12.693 19.0047 12.8299C19.3561 12.9686 19.5296 13.3667 19.3908 13.7183C17.867 17.5868 14.1984 20.0866 10.0433 20.0866Z" fill="#E64D4D"/>
</g>
</svg>
