<?xml version="1.0" encoding="UTF-8"?>
<svg xmlns="http://www.w3.org/2000/svg" id="Layer_1" data-name="Layer 1" viewBox="0 0 24 24">
  <path d="m3.178,14c-.541,0-1.072-.201-1.549-.589-.854-.694-1.44-1.924-1.57-3.292-.211-2.222.854-3.909,2.589-4.104.707-.077,1.408.13,1.972.588.755.614,1.236,1.633,1.354,2.871h0c.224,2.345-.896,4.327-2.55,4.512-.082.009-.163.014-.244.014Zm-.232-7c-.062,0-.125.003-.187.011-1.16.129-1.861,1.369-1.705,3.015.105,1.106.556,2.082,1.206,2.61.234.191.604.408,1.051.357,1.069-.119,1.832-1.687,1.667-3.423h0c-.092-.969-.443-1.746-.989-2.189-.309-.25-.666-.38-1.043-.38Zm17.876,7c-.081,0-.163-.005-.244-.014-1.653-.185-2.773-2.167-2.55-4.512.118-1.237.598-2.257,1.354-2.871.563-.458,1.267-.665,1.972-.588,1.736.194,2.801,1.882,2.589,4.104-.13,1.367-.717,2.598-1.57,3.292-.478.388-1.009.589-1.549.589Zm.232-7c-.377,0-.734.13-1.043.38-.545.443-.896,1.221-.989,2.189-.165,1.736.598,3.304,1.667,3.423.444.05.817-.167,1.051-.357.65-.528,1.101-1.503,1.206-2.61.157-1.646-.544-2.885-1.705-3.015-.062-.007-.125-.011-.187-.011Zm-5.258,1c-.078,0-.155-.004-.233-.012-.831-.086-1.55-.629-2.024-1.528-.439-.833-.619-1.889-.506-2.972C13.266,1.26,14.662-.17,16.396.015c.835.087,1.555.545,2.026,1.29.471.745.661,1.714.546,2.803-.234,2.239-1.604,3.893-3.171,3.893Zm.316-7c-1.077,0-1.922,1.035-2.085,2.592-.093.889.048,1.742.396,2.401.313.594.755.949,1.243,1,1.077.102,2.126-1.258,2.307-2.991h0c.09-.862-.047-1.61-.397-2.164-.309-.487-.752-.774-1.284-.83-.061-.006-.12-.009-.179-.009Zm-7.909,7c-1.568,0-2.937-1.653-3.171-3.893h0c-.114-1.088.075-2.058.546-2.803C6.05.56,6.77.102,7.604.015c1.75-.188,3.13,1.245,3.362,3.472.113,1.084-.066,2.14-.506,2.973-.474.899-1.193,1.441-2.024,1.528-.078.008-.156.012-.233.012Zm-.316-7c-.059,0-.119.003-.179.009-.532.056-.976.343-1.284.83-.35.553-.487,1.301-.397,2.164h0c.181,1.733,1.241,3.093,2.307,2.991.488-.051.93-.406,1.243-1,.348-.66.489-1.513.396-2.402-.163-1.556-1.008-2.591-2.085-2.591Zm9.613,23c-.734,0-1.476-.211-2.261-.434-.933-.265-1.99-.566-3.239-.566s-2.307.301-3.239.566c-.785.223-1.526.434-2.261.434-1.686,0-3.5-1.095-3.5-3.5,0-4.708,4.923-8.5,9-8.5s9,3.792,9,8.5c0,2.405-1.814,3.5-3.5,3.5Zm-5.5-2c1.389,0,2.518.321,3.513.604.747.212,1.393.396,1.987.396,1.153,0,2.5-.655,2.5-2.5,0-4.039-4.399-7.5-8-7.5s-8,3.461-8,7.5c0,1.845,1.347,2.5,2.5,2.5.595,0,1.24-.184,1.987-.396.995-.283,2.124-.604,3.513-.604Z"/>
</svg>
